<svg xmlns="http://www.w3.org/2000/svg" xmlns:xlink="http://www.w3.org/1999/xlink" width="250" zoomAndPan="magnify" viewBox="0 0 187.5 74.999997" height="100" preserveAspectRatio="xMidYMid meet" version="1.0"><defs><g/><clipPath id="c425f333c9"><path d="M 39.746094 24.019531 L 50 24.019531 L 50 45.710938 L 39.746094 45.710938 Z M 39.746094 24.019531 " clip-rule="nonzero"/></clipPath><clipPath id="92d1777f5b"><path d="M 50 24.019531 L 61 24.019531 L 61 45.710938 L 50 45.710938 Z M 50 24.019531 " clip-rule="nonzero"/></clipPath></defs><g fill="#ffffff" fill-opacity="1"><g transform="translate(2.583965, 41.987496)"><g><path d="M 11.1875 -16.1875 C 12.53125 -16.1875 13.492188 -15.765625 14.078125 -14.921875 C 14.660156 -14.140625 14.953125 -12.957031 14.953125 -11.375 L 14.953125 -11.484375 C 14.953125 -9.929688 14.660156 -8.75 14.078125 -7.9375 C 13.492188 -7.113281 12.53125 -6.703125 11.1875 -6.703125 L 4.484375 -6.671875 L 4.484375 -0.671875 C 4.484375 -0.367188 4.410156 -0.175781 4.265625 -0.09375 C 4.117188 -0.0195312 4.003906 0.015625 3.921875 0.015625 L 2.125 0.015625 C 2.039062 0.015625 1.925781 -0.0195312 1.78125 -0.09375 C 1.644531 -0.175781 1.578125 -0.367188 1.578125 -0.671875 L 1.578125 -8.921875 C 1.578125 -9.222656 1.644531 -9.40625 1.78125 -9.46875 C 1.925781 -9.539062 2.039062 -9.578125 2.125 -9.578125 L 10.6875 -9.578125 C 11.1875 -9.578125 11.53125 -9.722656 11.71875 -10.015625 C 11.9375 -10.304688 12.046875 -10.78125 12.046875 -11.4375 C 12.046875 -12.082031 11.9375 -12.550781 11.71875 -12.84375 C 11.53125 -13.132812 11.1875 -13.28125 10.6875 -13.28125 L 2.125 -13.28125 C 2.039062 -13.28125 1.925781 -13.316406 1.78125 -13.390625 C 1.644531 -13.460938 1.578125 -13.644531 1.578125 -13.9375 L 1.578125 -15.5 C 1.578125 -15.8125 1.644531 -16.003906 1.78125 -16.078125 C 1.925781 -16.148438 2.039062 -16.1875 2.125 -16.1875 Z M 11.1875 -16.1875 "/></g></g></g><g fill="#ffffff" fill-opacity="1"><g transform="translate(20.078792, 41.987496)"><g><path d="M 14.96875 -11.484375 L 14.96875 -11.375 C 14.96875 -11.382812 14.96875 -11.390625 14.96875 -11.390625 C 14.96875 -11.398438 14.96875 -11.414062 14.96875 -11.4375 C 14.96875 -11.445312 14.96875 -11.453125 14.96875 -11.453125 C 14.96875 -11.460938 14.96875 -11.472656 14.96875 -11.484375 Z M 15.34375 -0.84375 C 15.414062 -0.738281 15.441406 -0.582031 15.421875 -0.375 C 15.378906 -0.113281 15.226562 0.015625 14.96875 0.015625 L 12.8125 0.015625 C 12.632812 0.015625 12.492188 -0.0195312 12.390625 -0.09375 C 12.347656 -0.125 12.3125 -0.164062 12.28125 -0.21875 C 12.25 -0.269531 12.210938 -0.320312 12.171875 -0.375 L 8.625 -6.671875 L 4.484375 -6.671875 L 4.484375 -0.671875 C 4.484375 -0.367188 4.410156 -0.175781 4.265625 -0.09375 C 4.128906 -0.0195312 4.015625 0.015625 3.921875 0.015625 L 2.140625 0.015625 C 2.046875 0.015625 1.925781 -0.0195312 1.78125 -0.09375 C 1.644531 -0.175781 1.578125 -0.367188 1.578125 -0.671875 L 1.578125 -8.921875 C 1.578125 -9.222656 1.644531 -9.40625 1.78125 -9.46875 C 1.925781 -9.539062 2.046875 -9.578125 2.140625 -9.578125 L 10.6875 -9.578125 C 11.1875 -9.578125 11.53125 -9.722656 11.71875 -10.015625 C 11.9375 -10.304688 12.046875 -10.78125 12.046875 -11.4375 C 12.046875 -12.082031 11.9375 -12.550781 11.71875 -12.84375 C 11.53125 -13.132812 11.1875 -13.28125 10.6875 -13.28125 L 2.140625 -13.28125 C 2.046875 -13.28125 1.925781 -13.316406 1.78125 -13.390625 C 1.644531 -13.460938 1.578125 -13.644531 1.578125 -13.9375 L 1.578125 -15.5 C 1.578125 -15.8125 1.644531 -16.003906 1.78125 -16.078125 C 1.925781 -16.148438 2.046875 -16.1875 2.140625 -16.1875 L 11.1875 -16.1875 C 12.539062 -16.1875 13.515625 -15.765625 14.109375 -14.921875 C 14.671875 -14.109375 14.957031 -12.945312 14.96875 -11.4375 C 14.957031 -9.914062 14.671875 -8.75 14.109375 -7.9375 C 13.609375 -7.25 12.875 -6.847656 11.90625 -6.734375 Z M 15.34375 -0.84375 "/></g></g></g><g fill="#ffffff" fill-opacity="1"><g transform="translate(38.067466, 41.987496)"><g/></g></g><g clip-path="url(#c425f333c9)"><path fill="#ffffff" d="M 49.921875 26.636719 C 49.921875 24.789062 48.160156 24.019531 47.214844 24.019531 C 46.648438 24.019531 45.523438 24.402344 44.910156 25.222656 C 44.605469 25.625 44.46875 26.082031 44.503906 26.566406 C 43.945312 26.484375 43.03125 26.464844 42.476562 27.359375 C 42.078125 28 42.035156 28.53125 42.078125 28.875 C 41.496094 28.945312 40.457031 29.230469 40.054688 30.34375 C 39.753906 31.179688 39.804688 32.039062 40.0625 32.726562 C 40.0625 32.726562 40.0625 32.730469 40.0625 32.730469 C 40.121094 32.925781 40.222656 33.132812 40.371094 33.335938 C 40.371094 33.339844 40.375 33.339844 40.375 33.34375 C 40.386719 33.359375 40.398438 33.371094 40.410156 33.386719 C 40.46875 33.472656 40.53125 33.550781 40.601562 33.621094 C 40.335938 33.835938 40.183594 34.148438 40.148438 34.71875 C 40.109375 35.359375 40.386719 36.128906 40.871094 36.527344 C 40.539062 36.867188 40.25 37.375 40.320312 38.441406 C 40.386719 39.097656 40.753906 39.765625 41.28125 40.183594 C 41.558594 40.402344 41.867188 40.535156 42.179688 40.585938 C 42.203125 40.589844 42.222656 40.597656 42.246094 40.597656 C 42.253906 40.597656 42.261719 40.597656 42.269531 40.601562 C 42.277344 40.601562 42.285156 40.601562 42.296875 40.605469 C 42.347656 40.914062 42.519531 41.257812 42.71875 41.515625 C 43.046875 41.941406 43.464844 42.1875 43.921875 42.226562 C 44.058594 42.75 44.359375 43.535156 45.242188 43.644531 C 45.3125 44.140625 45.484375 44.550781 45.757812 44.871094 C 46.101562 45.269531 46.59375 45.503906 47.175781 45.542969 C 47.234375 45.546875 47.292969 45.546875 47.351562 45.546875 C 48.046875 45.546875 48.765625 45.273438 49.261719 44.804688 C 49.691406 44.402344 49.925781 43.882812 49.921875 43.347656 L 49.921875 26.667969 C 49.921875 26.65625 49.921875 26.648438 49.921875 26.636719 Z M 49.300781 31.089844 C 49.042969 30.9375 48.730469 30.828125 48.40625 30.785156 C 47.535156 30.667969 46.789062 31.066406 46.359375 31.886719 C 45.867188 32.925781 46.257812 33.707031 46.53125 34.078125 C 46.890625 34.5625 47.4375 34.886719 47.875 34.886719 C 47.914062 34.886719 47.953125 34.882812 47.992188 34.878906 C 48.164062 34.851562 48.28125 34.695312 48.253906 34.527344 C 48.230469 34.355469 48.074219 34.238281 47.902344 34.261719 C 47.753906 34.285156 47.335938 34.117188 47.03125 33.710938 C 46.796875 33.390625 46.585938 32.863281 46.914062 32.164062 C 47.289062 31.449219 47.859375 31.351562 48.273438 31.394531 C 48.855469 31.453125 49.246094 31.777344 49.300781 31.898438 L 49.300781 43.347656 C 49.304688 43.816406 49.050781 44.152344 48.835938 44.351562 C 48.417969 44.746094 47.796875 44.960938 47.214844 44.921875 C 46.929688 44.902344 46.523438 44.808594 46.230469 44.464844 C 45.917969 44.101562 45.78125 43.523438 45.839844 42.796875 C 45.882812 42.464844 46.296875 41.808594 46.851562 41.53125 C 47.167969 41.375 47.46875 41.375 47.75 41.53125 C 47.898438 41.617188 48.089844 41.566406 48.175781 41.417969 C 48.257812 41.269531 48.207031 41.078125 48.058594 40.992188 C 47.59375 40.730469 47.078125 40.722656 46.570312 40.976562 C 46.5625 40.984375 46.550781 40.992188 46.539062 40.996094 C 46.40625 40.859375 46.207031 40.765625 45.953125 40.734375 C 45.53125 40.6875 45.0625 40.832031 44.984375 41.199219 C 44.949219 41.367188 45.058594 41.53125 45.226562 41.566406 C 45.371094 41.597656 45.519531 41.519531 45.574219 41.386719 C 45.632812 41.359375 45.785156 41.332031 45.941406 41.363281 C 45.96875 41.367188 45.992188 41.375 46.011719 41.378906 C 45.578125 41.789062 45.273438 42.328125 45.222656 42.734375 C 45.214844 42.828125 45.214844 42.917969 45.210938 43.003906 C 44.742188 42.886719 44.597656 42.410156 44.472656 41.851562 L 44.414062 41.582031 L 44.140625 41.609375 C 43.746094 41.644531 43.453125 41.417969 43.28125 41.222656 C 43.082031 41 42.972656 40.75 42.925781 40.578125 C 43.796875 40.449219 44.875 39.90625 45.160156 38.421875 C 45.253906 38.386719 45.351562 38.347656 45.449219 38.289062 C 45.453125 38.285156 45.457031 38.28125 45.464844 38.277344 C 45.820312 38.078125 46.191406 37.757812 46.4375 37.34375 C 46.730469 36.863281 46.808594 36.347656 46.660156 35.851562 C 46.613281 35.683594 46.441406 35.589844 46.277344 35.640625 C 46.113281 35.6875 46.019531 35.859375 46.066406 36.023438 C 46.164062 36.355469 46.109375 36.691406 45.910156 37.023438 C 45.707031 37.355469 45.382812 37.625 45.101562 37.769531 C 45.09375 37.773438 45.085938 37.777344 45.078125 37.78125 C 44.988281 37.824219 44.902344 37.859375 44.824219 37.871094 C 44.160156 38 43.496094 37.363281 43.488281 37.355469 C 43.367188 37.238281 43.171875 37.238281 43.050781 37.359375 C 42.929688 37.484375 42.933594 37.679688 43.054688 37.800781 C 43.089844 37.835938 43.71875 38.441406 44.5 38.507812 C 44.246094 39.433594 43.589844 39.785156 43.058594 39.914062 L 42.566406 39.980469 C 42.535156 39.984375 42.507812 39.984375 42.476562 39.988281 C 42.40625 39.988281 42.355469 39.984375 42.328125 39.984375 C 42.324219 39.980469 42.320312 39.980469 42.316406 39.980469 C 42.3125 39.980469 42.308594 39.980469 42.308594 39.980469 C 42.304688 39.980469 42.304688 39.980469 42.304688 39.980469 C 42.039062 39.945312 41.820312 39.816406 41.667969 39.695312 C 41.273438 39.386719 40.988281 38.867188 40.941406 38.390625 C 40.867188 37.320312 41.210938 37.03125 41.574219 36.730469 L 42.085938 36.304688 L 41.480469 36.160156 C 41.089844 36.070312 40.730469 35.359375 40.769531 34.757812 C 40.800781 34.253906 40.914062 34.121094 41.128906 34.011719 C 41.449219 34.199219 41.84375 34.347656 42.316406 34.410156 C 42.425781 34.425781 42.53125 34.433594 42.632812 34.433594 C 42.992188 34.433594 43.3125 34.351562 43.589844 34.226562 C 43.734375 34.3125 44.027344 34.5625 44.007812 34.902344 C 43.984375 35.417969 43.621094 35.808594 43.613281 35.820312 C 43.496094 35.941406 43.5 36.136719 43.621094 36.257812 C 43.683594 36.3125 43.757812 36.34375 43.835938 36.34375 C 43.917969 36.34375 44 36.3125 44.0625 36.25 C 44.082031 36.226562 44.589844 35.691406 44.628906 34.933594 C 44.652344 34.5 44.429688 34.136719 44.167969 33.894531 C 44.566406 33.597656 44.800781 33.28125 44.820312 33.257812 C 44.921875 33.117188 44.890625 32.921875 44.75 32.824219 C 44.613281 32.722656 44.417969 32.753906 44.316406 32.890625 C 44.3125 32.898438 43.976562 33.347656 43.433594 33.617188 C 43.140625 33.757812 42.792969 33.851562 42.398438 33.796875 C 42.085938 33.753906 41.820312 33.667969 41.597656 33.558594 L 41.378906 33.4375 C 41.164062 33.296875 41.003906 33.140625 40.886719 32.984375 C 40.515625 32.433594 40.300781 31.492188 40.636719 30.554688 C 40.976562 29.613281 41.996094 29.488281 42.34375 29.472656 L 43.261719 30.421875 C 43.0625 30.535156 42.824219 30.605469 42.542969 30.621094 C 42.371094 30.628906 42.238281 30.773438 42.246094 30.945312 C 42.253906 31.109375 42.390625 31.238281 42.558594 31.238281 C 42.5625 31.238281 42.566406 31.238281 42.570312 31.238281 C 43.175781 31.210938 43.660156 31 44.007812 30.613281 C 44.617188 29.9375 44.566406 28.972656 44.5625 28.933594 C 44.550781 28.761719 44.40625 28.632812 44.234375 28.640625 C 44.0625 28.652344 43.933594 28.800781 43.941406 28.972656 C 43.941406 28.976562 43.96875 29.527344 43.703125 29.984375 L 42.738281 28.988281 C 42.691406 28.867188 42.5625 28.394531 43.003906 27.6875 C 43.398438 27.050781 44.0625 27.113281 44.652344 27.222656 C 44.691406 27.230469 44.722656 27.234375 44.757812 27.242188 L 45.511719 27.890625 C 45.570312 27.941406 45.644531 27.964844 45.714844 27.964844 C 45.800781 27.964844 45.890625 27.929688 45.949219 27.859375 C 46.0625 27.726562 46.046875 27.53125 45.917969 27.421875 L 45.167969 26.773438 C 45.0625 26.34375 45.140625 25.945312 45.40625 25.59375 C 45.882812 24.960938 46.824219 24.640625 47.214844 24.640625 C 47.773438 24.640625 49.296875 25.113281 49.300781 26.628906 C 49.300781 26.632812 49.300781 26.632812 49.300781 26.636719 L 49.300781 26.660156 C 49.289062 28.019531 48.40625 28.34375 48.296875 28.375 C 48.160156 28.367188 48.042969 28.457031 47.996094 28.589844 C 47.941406 28.75 48.03125 28.925781 48.195312 28.980469 C 48.472656 29.074219 48.929688 28.753906 48.980469 28.71875 C 49.074219 28.648438 49.1875 28.554688 49.300781 28.425781 Z M 49.300781 31.089844 " fill-opacity="1" fill-rule="nonzero"/></g><g clip-path="url(#92d1777f5b)"><path fill="#ffffff" d="M 60.707031 34.722656 L 60.707031 34.703125 C 60.644531 34.148438 60.433594 33.832031 60.179688 33.625 C 60.832031 32.945312 61.1875 31.613281 60.730469 30.34375 C 60.328125 29.230469 59.289062 28.945312 58.703125 28.875 C 58.75 28.53125 58.707031 28 58.308594 27.359375 C 57.753906 26.46875 56.84375 26.484375 56.285156 26.566406 C 56.335938 26.039062 56.199219 25.546875 55.886719 25.128906 C 55.3125 24.367188 54.28125 24.019531 53.566406 24.019531 C 52.625 24.019531 50.863281 24.789062 50.863281 26.636719 C 50.863281 26.644531 50.863281 26.652344 50.863281 26.664062 L 50.863281 43.34375 C 50.859375 43.882812 51.09375 44.402344 51.523438 44.804688 C 52.019531 45.273438 52.738281 45.546875 53.433594 45.546875 C 53.492188 45.546875 53.550781 45.546875 53.609375 45.542969 C 54.671875 45.46875 55.378906 44.765625 55.539062 43.644531 C 56.421875 43.535156 56.722656 42.757812 56.859375 42.234375 C 57.308594 42.214844 57.707031 42.046875 58 41.75 C 58.296875 41.445312 58.472656 41.019531 58.492188 40.566406 C 59.664062 40.398438 60.363281 39.710938 60.472656 38.605469 C 60.558594 37.769531 60.355469 37.070312 59.878906 36.523438 C 60.339844 36.199219 60.75 35.683594 60.707031 34.722656 Z M 52.039062 43.757812 C 51.882812 43.757812 51.753906 43.632812 51.753906 43.472656 C 51.753906 43.316406 51.882812 43.1875 52.039062 43.1875 C 52.199219 43.1875 52.324219 43.316406 52.324219 43.472656 C 52.324219 43.632812 52.199219 43.757812 52.039062 43.757812 Z M 51.902344 44.011719 L 51.902344 44.308594 C 51.761719 44.167969 51.613281 43.96875 51.535156 43.710938 C 51.605469 43.859375 51.742188 43.972656 51.902344 44.011719 Z M 59.230469 36.1875 L 58.816406 36.402344 L 59.175781 36.703125 C 59.515625 36.988281 59.960938 37.492188 59.855469 38.546875 C 59.765625 39.441406 59.210938 39.910156 58.15625 39.980469 L 57.832031 40 L 57.867188 40.324219 C 57.910156 40.703125 57.792969 41.074219 57.558594 41.3125 C 57.382812 41.492188 57.152344 41.59375 56.875 41.609375 L 56.777344 38.371094 L 57.679688 37.554688 C 57.792969 37.632812 57.933594 37.679688 58.082031 37.679688 C 58.476562 37.679688 58.800781 37.355469 58.800781 36.960938 C 58.800781 36.5625 58.476562 36.242188 58.082031 36.242188 C 57.683594 36.242188 57.363281 36.5625 57.363281 36.960938 C 57.363281 37.109375 57.40625 37.246094 57.484375 37.363281 L 56.503906 38.253906 L 56.601562 41.605469 L 56.371094 41.582031 L 56.3125 41.851562 C 56.175781 42.46875 56.007812 42.984375 55.414062 43.03125 L 55.414062 40.230469 L 55.023438 39.859375 L 55.023438 38.4375 L 55.886719 37.585938 C 55.976562 37.648438 56.085938 37.6875 56.203125 37.6875 C 56.511719 37.6875 56.761719 37.4375 56.761719 37.128906 C 56.761719 36.824219 56.511719 36.570312 56.203125 36.570312 C 55.894531 36.570312 55.644531 36.824219 55.644531 37.128906 C 55.644531 37.21875 55.667969 37.304688 55.707031 37.378906 L 54.75 38.324219 L 54.75 39.605469 L 54.234375 39.125 L 54.234375 37.179688 C 54.476562 37.121094 54.65625 36.902344 54.65625 36.640625 C 54.65625 36.332031 54.40625 36.082031 54.097656 36.082031 C 53.792969 36.082031 53.542969 36.332031 53.542969 36.640625 C 53.542969 36.902344 53.722656 37.121094 53.964844 37.179688 L 53.964844 39.242188 L 55.144531 40.347656 L 55.144531 43.054688 C 55.113281 43.066406 55.089844 43.082031 55.066406 43.101562 C 55.058594 43.105469 55.054688 43.109375 55.050781 43.113281 C 55.050781 43.113281 55.050781 43.113281 55.046875 43.117188 C 55.003906 43.15625 54.972656 43.207031 54.957031 43.265625 C 54.957031 43.273438 54.957031 43.28125 54.957031 43.285156 C 54.953125 43.300781 54.949219 43.3125 54.949219 43.324219 C 54.910156 44.019531 54.648438 44.503906 54.199219 44.746094 L 53.652344 44.242188 L 53.652344 42.90625 C 53.894531 42.84375 54.074219 42.628906 54.074219 42.367188 C 54.074219 42.058594 53.824219 41.808594 53.515625 41.808594 C 53.210938 41.808594 52.960938 42.058594 52.960938 42.367188 C 52.960938 42.628906 53.140625 42.84375 53.382812 42.90625 L 53.382812 44.363281 L 53.921875 44.859375 C 53.8125 44.894531 53.691406 44.914062 53.566406 44.921875 C 53.082031 44.957031 52.574219 44.808594 52.175781 44.535156 L 52.175781 44.011719 C 52.417969 43.953125 52.597656 43.734375 52.597656 43.472656 C 52.597656 43.164062 52.347656 42.914062 52.039062 42.914062 C 51.75 42.914062 51.515625 43.136719 51.488281 43.414062 C 51.484375 43.394531 51.484375 43.371094 51.484375 43.347656 L 51.484375 40.695312 L 51.730469 40.964844 L 53.25 40.964844 C 53.3125 41.214844 53.539062 41.402344 53.8125 41.402344 C 54.132812 41.402344 54.394531 41.140625 54.394531 40.820312 C 54.394531 40.5 54.132812 40.238281 53.8125 40.238281 C 53.539062 40.238281 53.3125 40.425781 53.25 40.679688 L 51.855469 40.679688 L 51.484375 40.277344 L 51.484375 38.558594 L 52 38.558594 C 52.0625 38.839844 52.3125 39.050781 52.613281 39.050781 C 52.957031 39.050781 53.238281 38.765625 53.238281 38.421875 C 53.238281 38.074219 52.957031 37.792969 52.613281 37.792969 C 52.3125 37.792969 52.0625 38.003906 52 38.28125 L 51.484375 38.28125 L 51.484375 34.210938 C 51.800781 34.210938 52.097656 34.210938 52.414062 34.210938 L 52.414062 35.582031 C 52.234375 35.621094 52.101562 35.78125 52.101562 35.96875 C 52.101562 36.1875 52.28125 36.367188 52.5 36.367188 C 52.722656 36.367188 52.898438 36.1875 52.898438 35.96875 C 52.898438 35.78125 52.765625 35.621094 52.589844 35.582031 L 52.589844 34.269531 C 52.910156 34.589844 53.21875 34.914062 53.53125 35.238281 L 53.652344 35.363281 L 53.78125 35.242188 L 53.660156 35.113281 C 53.484375 34.933594 53.308594 34.753906 53.132812 34.570312 L 54.503906 34.570312 C 54.542969 34.75 54.703125 34.882812 54.890625 34.882812 C 55.113281 34.882812 55.289062 34.703125 55.289062 34.484375 C 55.289062 34.265625 55.113281 34.085938 54.890625 34.085938 C 54.703125 34.085938 54.542969 34.21875 54.503906 34.394531 L 52.960938 34.394531 C 52.851562 34.285156 52.742188 34.171875 52.628906 34.058594 L 52.601562 34.035156 L 52.566406 34.035156 C 52.195312 34.035156 51.851562 34.035156 51.484375 34.035156 L 51.484375 33.605469 C 52.496094 33.597656 53.507812 33.597656 54.503906 33.613281 C 54.542969 33.792969 54.703125 33.925781 54.890625 33.925781 C 55.113281 33.925781 55.289062 33.746094 55.289062 33.527344 C 55.289062 33.308594 55.113281 33.128906 54.890625 33.128906 C 54.703125 33.128906 54.546875 33.261719 54.503906 33.4375 C 53.507812 33.421875 52.496094 33.421875 51.484375 33.429688 L 51.484375 32.667969 L 51.734375 32.941406 L 52.679688 32.941406 C 52.71875 33.101562 52.859375 33.214844 53.027344 33.214844 C 53.226562 33.214844 53.390625 33.054688 53.390625 32.855469 C 53.390625 32.65625 53.226562 32.492188 53.027344 32.492188 C 52.859375 32.492188 52.71875 32.609375 52.679688 32.765625 L 51.8125 32.765625 L 51.484375 32.410156 L 51.484375 31.425781 L 51.917969 31.21875 L 53.636719 31.855469 L 55.929688 30.773438 C 55.988281 30.851562 56.066406 30.910156 56.15625 30.941406 C 56.214844 30.960938 56.273438 30.972656 56.332031 30.972656 C 56.40625 30.972656 56.480469 30.957031 56.546875 30.921875 C 56.804688 30.804688 56.914062 30.496094 56.792969 30.242188 C 56.734375 30.121094 56.632812 30.027344 56.503906 29.980469 C 56.375 29.933594 56.234375 29.941406 56.113281 30 C 55.988281 30.058594 55.894531 30.160156 55.847656 30.289062 C 55.816406 30.378906 55.8125 30.476562 55.832031 30.570312 L 53.625 31.613281 L 52.207031 31.082031 L 53.546875 30.453125 L 53.929688 29.363281 L 55.667969 28.542969 C 55.765625 28.667969 55.914062 28.742188 56.070312 28.742188 C 56.140625 28.742188 56.214844 28.726562 56.285156 28.691406 C 56.539062 28.570312 56.648438 28.265625 56.53125 28.011719 C 56.410156 27.757812 56.105469 27.648438 55.847656 27.765625 C 55.628906 27.871094 55.519531 28.113281 55.570312 28.339844 L 53.75 29.199219 L 53.363281 30.289062 L 51.484375 31.175781 L 51.484375 28.425781 C 51.597656 28.554688 51.710938 28.648438 51.804688 28.71875 C 51.855469 28.753906 52.308594 29.074219 52.589844 28.980469 C 52.753906 28.925781 52.839844 28.75 52.785156 28.589844 C 52.742188 28.457031 52.621094 28.375 52.492188 28.375 C 52.488281 28.375 52.488281 28.375 52.484375 28.375 C 52.378906 28.34375 51.492188 28.019531 51.484375 26.65625 L 51.484375 26.636719 C 51.484375 26.632812 51.484375 26.632812 51.484375 26.632812 C 51.484375 25.253906 52.738281 24.738281 53.386719 24.65625 L 53.1875 24.839844 L 53.1875 26.328125 C 52.941406 26.378906 52.757812 26.597656 52.757812 26.855469 C 52.757812 27.15625 53 27.398438 53.300781 27.398438 C 53.597656 27.398438 53.84375 27.15625 53.84375 26.855469 C 53.84375 26.597656 53.65625 26.378906 53.414062 26.328125 L 53.414062 24.9375 L 53.726562 24.648438 C 54.289062 24.695312 55 24.984375 55.390625 25.503906 C 55.664062 25.863281 55.738281 26.292969 55.617188 26.777344 L 55.257812 27.128906 C 55.132812 27.25 55.128906 27.445312 55.25 27.566406 C 55.3125 27.628906 55.390625 27.660156 55.472656 27.660156 C 55.550781 27.660156 55.628906 27.632812 55.6875 27.574219 L 56.03125 27.238281 C 56.0625 27.234375 56.097656 27.226562 56.132812 27.222656 C 56.722656 27.113281 57.382812 27.050781 57.78125 27.6875 C 58.210938 28.375 58.101562 28.839844 58.054688 28.972656 L 57.734375 29.242188 C 57.601562 29.351562 57.585938 29.546875 57.695312 29.679688 C 57.757812 29.75 57.847656 29.789062 57.933594 29.789062 C 58.003906 29.789062 58.074219 29.765625 58.132812 29.714844 L 58.421875 29.472656 C 58.746094 29.484375 59.753906 29.59375 60.121094 30.5 L 57.433594 30.5 L 55.910156 32.066406 L 55.910156 33.652344 C 55.644531 33.710938 55.441406 33.949219 55.441406 34.234375 C 55.441406 34.566406 55.710938 34.835938 56.042969 34.835938 C 56.375 34.835938 56.644531 34.566406 56.644531 34.234375 C 56.644531 33.949219 56.441406 33.710938 56.175781 33.652344 L 56.175781 32.171875 L 57.542969 30.761719 L 60.210938 30.761719 C 60.402344 31.453125 60.308594 32.125 60.089844 32.628906 L 57.929688 32.628906 L 57.046875 33.648438 L 57.046875 34.621094 C 56.78125 34.679688 56.582031 34.917969 56.582031 35.203125 C 56.582031 35.535156 56.851562 35.804688 57.179688 35.804688 C 57.511719 35.804688 57.78125 35.535156 57.78125 35.203125 C 57.78125 34.917969 57.582031 34.679688 57.3125 34.621094 L 57.3125 33.746094 L 58.050781 32.894531 L 59.953125 32.894531 C 59.832031 33.097656 59.691406 33.253906 59.546875 33.351562 L 58.664062 33.351562 C 58.492188 33.351562 58.351562 33.488281 58.351562 33.660156 C 58.351562 33.832031 58.492188 33.972656 58.664062 33.972656 L 59.566406 33.972656 C 59.867188 34.117188 60.03125 34.292969 60.089844 34.761719 C 60.121094 35.558594 59.785156 35.898438 59.230469 36.1875 Z M 57.632812 36.960938 C 57.632812 36.714844 57.835938 36.515625 58.082031 36.515625 C 58.328125 36.515625 58.527344 36.714844 58.527344 36.960938 C 58.527344 37.207031 58.328125 37.40625 58.082031 37.40625 C 57.835938 37.40625 57.632812 37.207031 57.632812 36.960938 Z M 55.917969 37.128906 C 55.917969 36.972656 56.046875 36.84375 56.203125 36.84375 C 56.363281 36.84375 56.492188 36.972656 56.492188 37.128906 C 56.492188 37.289062 56.363281 37.417969 56.203125 37.417969 C 56.046875 37.417969 55.917969 37.289062 55.917969 37.128906 Z M 54.097656 36.925781 C 53.941406 36.925781 53.8125 36.800781 53.8125 36.640625 C 53.8125 36.484375 53.941406 36.355469 54.097656 36.355469 C 54.257812 36.355469 54.386719 36.484375 54.386719 36.640625 C 54.386719 36.800781 54.257812 36.925781 54.097656 36.925781 Z M 53.515625 42.652344 C 53.359375 42.652344 53.230469 42.523438 53.230469 42.367188 C 53.230469 42.210938 53.359375 42.082031 53.515625 42.082031 C 53.675781 42.082031 53.804688 42.210938 53.804688 42.367188 C 53.804688 42.523438 53.675781 42.652344 53.515625 42.652344 Z M 53.511719 40.820312 C 53.511719 40.65625 53.648438 40.523438 53.8125 40.523438 C 53.976562 40.523438 54.109375 40.65625 54.109375 40.820312 C 54.109375 40.984375 53.976562 41.121094 53.8125 41.121094 C 53.648438 41.121094 53.511719 40.984375 53.511719 40.820312 Z M 52.261719 38.421875 C 52.261719 38.226562 52.417969 38.070312 52.613281 38.070312 C 52.804688 38.070312 52.960938 38.226562 52.960938 38.421875 C 52.960938 38.613281 52.804688 38.773438 52.613281 38.773438 C 52.417969 38.773438 52.261719 38.613281 52.261719 38.421875 Z M 52.5 35.746094 C 52.625 35.746094 52.722656 35.847656 52.722656 35.96875 C 52.722656 36.09375 52.625 36.191406 52.5 36.191406 C 52.378906 36.191406 52.277344 36.09375 52.277344 35.96875 C 52.277344 35.847656 52.378906 35.746094 52.5 35.746094 Z M 54.667969 34.484375 C 54.667969 34.359375 54.769531 34.261719 54.890625 34.261719 C 55.015625 34.261719 55.113281 34.359375 55.113281 34.484375 C 55.113281 34.605469 55.015625 34.707031 54.890625 34.707031 C 54.769531 34.707031 54.667969 34.605469 54.667969 34.484375 Z M 54.667969 33.527344 C 54.667969 33.40625 54.769531 33.304688 54.890625 33.304688 C 55.015625 33.304688 55.113281 33.40625 55.113281 33.527344 C 55.113281 33.648438 55.015625 33.75 54.890625 33.75 C 54.769531 33.75 54.667969 33.648438 54.667969 33.527344 Z M 52.84375 32.855469 C 52.84375 32.753906 52.925781 32.671875 53.027344 32.671875 C 53.128906 32.671875 53.214844 32.753906 53.214844 32.855469 C 53.214844 32.957031 53.128906 33.039062 53.027344 33.039062 C 52.925781 33.039062 52.84375 32.957031 52.84375 32.855469 Z M 56.0625 30.363281 C 56.085938 30.292969 56.140625 30.234375 56.207031 30.203125 C 56.246094 30.183594 56.289062 30.175781 56.328125 30.175781 C 56.363281 30.175781 56.394531 30.179688 56.425781 30.191406 C 56.5 30.21875 56.554688 30.269531 56.589844 30.339844 C 56.65625 30.480469 56.59375 30.652344 56.453125 30.71875 C 56.382812 30.75 56.304688 30.753906 56.234375 30.730469 C 56.164062 30.703125 56.105469 30.652344 56.070312 30.582031 C 56.039062 30.515625 56.035156 30.4375 56.0625 30.363281 Z M 55.945312 27.972656 C 55.984375 27.953125 56.027344 27.945312 56.066406 27.945312 C 56.175781 27.945312 56.277344 28.003906 56.324219 28.109375 C 56.394531 28.25 56.332031 28.421875 56.1875 28.488281 C 56.046875 28.554688 55.875 28.492188 55.808594 28.351562 C 55.742188 28.210938 55.804688 28.039062 55.945312 27.972656 Z M 53.300781 26.539062 C 53.476562 26.539062 53.617188 26.683594 53.617188 26.855469 C 53.617188 27.03125 53.476562 27.171875 53.300781 27.171875 C 53.125 27.171875 52.984375 27.03125 52.984375 26.855469 C 52.984375 26.683594 53.125 26.539062 53.300781 26.539062 Z M 56.042969 33.898438 C 56.226562 33.898438 56.378906 34.050781 56.378906 34.234375 C 56.378906 34.417969 56.226562 34.570312 56.042969 34.570312 C 55.859375 34.570312 55.707031 34.417969 55.707031 34.234375 C 55.707031 34.050781 55.859375 33.898438 56.042969 33.898438 Z M 57.179688 34.871094 C 57.363281 34.871094 57.515625 35.019531 57.515625 35.203125 C 57.515625 35.390625 57.363281 35.539062 57.179688 35.539062 C 56.996094 35.539062 56.84375 35.390625 56.84375 35.203125 C 56.84375 35.019531 56.996094 34.871094 57.179688 34.871094 Z M 57.179688 34.871094 " fill-opacity="1" fill-rule="nonzero"/></g><g fill="#ffffff" fill-opacity="1"><g transform="translate(62.747344, 41.987496)"><g><path d="M 12.25 -16.1875 C 12.632812 -16.1875 12.875 -16.101562 12.96875 -15.9375 C 13.070312 -15.769531 13.125 -15.625 13.125 -15.5 L 13.125 -6.140625 C 13.125 -5.597656 13.097656 -5.085938 13.046875 -4.609375 C 13.003906 -4.140625 12.941406 -3.71875 12.859375 -3.34375 C 12.773438 -2.945312 12.660156 -2.585938 12.515625 -2.265625 C 12.367188 -1.941406 12.203125 -1.648438 12.015625 -1.390625 C 11.609375 -0.890625 11.097656 -0.53125 10.484375 -0.3125 C 9.859375 -0.09375 9.117188 0.015625 8.265625 0.015625 L 2.125 0.015625 C 2.039062 0.015625 1.925781 -0.0195312 1.78125 -0.09375 C 1.644531 -0.175781 1.578125 -0.367188 1.578125 -0.671875 L 1.578125 -2.21875 C 1.578125 -2.519531 1.644531 -2.707031 1.78125 -2.78125 C 1.925781 -2.863281 2.039062 -2.90625 2.125 -2.90625 L 8.1875 -2.90625 C 8.625 -2.90625 8.957031 -2.953125 9.1875 -3.046875 C 9.445312 -3.117188 9.644531 -3.257812 9.78125 -3.46875 C 9.925781 -3.65625 10.03125 -3.945312 10.09375 -4.34375 C 10.132812 -4.539062 10.160156 -4.757812 10.171875 -5 C 10.179688 -5.25 10.1875 -5.519531 10.1875 -5.8125 L 10.1875 -13.234375 C 10.1875 -13.234375 10.023438 -13.234375 9.703125 -13.234375 C 9.390625 -13.242188 9 -13.25 8.53125 -13.25 C 8.070312 -13.25 7.601562 -13.253906 7.125 -13.265625 C 6.65625 -13.273438 6.257812 -13.28125 5.9375 -13.28125 C 5.613281 -13.28125 5.453125 -13.28125 5.453125 -13.28125 C 5.367188 -13.28125 5.253906 -13.316406 5.109375 -13.390625 C 4.960938 -13.460938 4.890625 -13.644531 4.890625 -13.9375 L 4.890625 -15.5 C 4.890625 -15.8125 4.960938 -16.003906 5.109375 -16.078125 C 5.253906 -16.148438 5.367188 -16.1875 5.453125 -16.1875 Z M 12.25 -16.1875 "/></g></g></g><g fill="#ffffff" fill-opacity="1"><g transform="translate(78.416112, 41.987496)"><g><path d="M 13.375 -3.515625 C 13.46875 -3.515625 13.582031 -3.476562 13.71875 -3.40625 C 13.863281 -3.332031 13.9375 -3.144531 13.9375 -2.84375 L 13.9375 -0.6875 C 13.9375 -0.382812 13.863281 -0.195312 13.71875 -0.125 C 13.582031 -0.0507812 13.46875 -0.015625 13.375 -0.015625 L 6.40625 -0.015625 C 5.96875 -0.015625 5.566406 -0.0390625 5.203125 -0.09375 C 4.835938 -0.144531 4.503906 -0.234375 4.203125 -0.359375 C 3.554688 -0.578125 3.046875 -0.9375 2.671875 -1.4375 C 2.273438 -1.945312 1.992188 -2.585938 1.828125 -3.359375 C 1.765625 -3.679688 1.707031 -4.039062 1.65625 -4.4375 C 1.613281 -4.832031 1.585938 -5.257812 1.578125 -5.71875 L 1.578125 -5.8125 L 1.609375 -8.28125 C 1.648438 -8.425781 1.722656 -8.59375 1.828125 -8.78125 C 2.117188 -9.289062 2.5625 -9.566406 3.15625 -9.609375 L 13.296875 -9.625 C 13.378906 -9.625 13.488281 -9.585938 13.625 -9.515625 C 13.769531 -9.441406 13.84375 -9.253906 13.84375 -8.953125 L 13.84375 -7.40625 C 13.84375 -7.101562 13.769531 -6.910156 13.625 -6.828125 C 13.488281 -6.753906 13.378906 -6.71875 13.296875 -6.71875 L 4.515625 -6.71875 C 4.515625 -6.71875 4.507812 -6.644531 4.5 -6.5 C 4.5 -6.351562 4.492188 -6.1875 4.484375 -6 C 4.484375 -5.820312 4.484375 -5.660156 4.484375 -5.515625 C 4.484375 -5.367188 4.484375 -5.296875 4.484375 -5.296875 C 4.492188 -5.242188 4.5 -5.1875 4.5 -5.125 C 4.5 -5.070312 4.503906 -5.019531 4.515625 -4.96875 C 4.566406 -4.601562 4.675781 -4.304688 4.84375 -4.078125 C 5.007812 -3.890625 5.207031 -3.75 5.4375 -3.65625 C 5.582031 -3.613281 5.734375 -3.578125 5.890625 -3.546875 C 6.054688 -3.523438 6.25 -3.515625 6.46875 -3.515625 Z M 3.296875 -9.453125 Z M 13.390625 -16.21875 C 13.472656 -16.21875 13.582031 -16.175781 13.71875 -16.09375 C 13.863281 -16.019531 13.9375 -15.832031 13.9375 -15.53125 L 13.9375 -13.984375 C 13.9375 -13.679688 13.863281 -13.488281 13.71875 -13.40625 C 13.582031 -13.332031 13.472656 -13.296875 13.390625 -13.296875 L 2.09375 -13.3125 C 2.019531 -13.3125 1.914062 -13.347656 1.78125 -13.421875 C 1.644531 -13.492188 1.578125 -13.679688 1.578125 -13.984375 L 1.578125 -15.515625 C 1.578125 -15.828125 1.644531 -16.019531 1.78125 -16.09375 C 1.914062 -16.175781 2.019531 -16.21875 2.09375 -16.21875 Z M 13.390625 -16.21875 "/></g></g></g><g fill="#ffffff" fill-opacity="1"><g transform="translate(94.909562, 41.987496)"><g><path d="M 13.578125 -16.1875 C 13.648438 -16.1875 13.757812 -16.144531 13.90625 -16.0625 C 14.050781 -15.988281 14.125 -15.800781 14.125 -15.5 L 14.125 -13.984375 C 14.125 -13.671875 14.050781 -13.472656 13.90625 -13.390625 C 13.757812 -13.316406 13.648438 -13.28125 13.578125 -13.28125 L 6.515625 -13.28125 C 6.078125 -13.28125 5.738281 -13.234375 5.5 -13.140625 C 5.257812 -13.054688 5.0625 -12.910156 4.90625 -12.703125 C 4.757812 -12.503906 4.648438 -12.21875 4.578125 -11.84375 C 4.546875 -11.65625 4.519531 -11.441406 4.5 -11.203125 C 4.488281 -10.960938 4.484375 -10.691406 4.484375 -10.390625 L 4.484375 -5.8125 C 4.484375 -5.519531 4.488281 -5.25 4.5 -5 C 4.519531 -4.757812 4.546875 -4.539062 4.578125 -4.34375 C 4.617188 -4.15625 4.664062 -3.988281 4.71875 -3.84375 C 4.769531 -3.707031 4.832031 -3.582031 4.90625 -3.46875 C 5.0625 -3.257812 5.257812 -3.117188 5.5 -3.046875 C 5.738281 -2.953125 6.078125 -2.90625 6.515625 -2.90625 L 13.578125 -2.90625 C 13.648438 -2.90625 13.757812 -2.863281 13.90625 -2.78125 C 14.050781 -2.707031 14.125 -2.519531 14.125 -2.21875 L 14.125 -0.671875 C 14.125 -0.367188 14.050781 -0.175781 13.90625 -0.09375 C 13.757812 -0.0195312 13.648438 0.015625 13.578125 0.015625 L 6.421875 0.015625 C 5.566406 0.015625 4.828125 -0.09375 4.203125 -0.3125 C 3.597656 -0.519531 3.09375 -0.878906 2.6875 -1.390625 C 2.28125 -1.921875 1.992188 -2.5625 1.828125 -3.3125 C 1.734375 -3.707031 1.664062 -4.140625 1.625 -4.609375 C 1.59375 -5.085938 1.578125 -5.597656 1.578125 -6.140625 L 1.578125 -10.03125 C 1.578125 -10.570312 1.59375 -11.078125 1.625 -11.546875 C 1.664062 -12.015625 1.734375 -12.441406 1.828125 -12.828125 C 1.992188 -13.609375 2.28125 -14.25 2.6875 -14.75 C 3.070312 -15.25 3.578125 -15.613281 4.203125 -15.84375 C 4.828125 -16.070312 5.566406 -16.1875 6.421875 -16.1875 Z M 13.578125 -16.1875 "/></g></g></g><g fill="#ffffff" fill-opacity="1"><g transform="translate(111.579718, 41.987496)"><g><path d="M 15.140625 -16.1875 C 15.234375 -16.1875 15.351562 -16.148438 15.5 -16.078125 C 15.644531 -16.003906 15.71875 -15.816406 15.71875 -15.515625 L 15.71875 -13.984375 C 15.71875 -13.660156 15.644531 -13.460938 15.5 -13.390625 C 15.351562 -13.316406 15.234375 -13.28125 15.140625 -13.28125 L 10.09375 -13.28125 L 10.09375 -0.671875 C 10.09375 -0.367188 10.023438 -0.179688 9.890625 -0.109375 C 9.753906 -0.0351562 9.640625 0 9.546875 0 L 7.734375 0 C 7.660156 0 7.550781 -0.0351562 7.40625 -0.109375 C 7.257812 -0.179688 7.1875 -0.367188 7.1875 -0.671875 L 7.1875 -13.28125 L 2.140625 -13.28125 C 2.046875 -13.28125 1.925781 -13.316406 1.78125 -13.390625 C 1.644531 -13.460938 1.578125 -13.660156 1.578125 -13.984375 L 1.578125 -15.515625 C 1.578125 -15.816406 1.644531 -16.003906 1.78125 -16.078125 C 1.925781 -16.148438 2.046875 -16.1875 2.140625 -16.1875 Z M 15.140625 -16.1875 "/></g></g></g><g fill="#ffffff" fill-opacity="1"><g transform="translate(129.840322, 41.987496)"><g><path d="M 14.96875 -11.484375 L 14.96875 -11.375 C 14.96875 -11.382812 14.96875 -11.390625 14.96875 -11.390625 C 14.96875 -11.398438 14.96875 -11.414062 14.96875 -11.4375 C 14.96875 -11.445312 14.96875 -11.453125 14.96875 -11.453125 C 14.96875 -11.460938 14.96875 -11.472656 14.96875 -11.484375 Z M 15.34375 -0.84375 C 15.414062 -0.738281 15.441406 -0.582031 15.421875 -0.375 C 15.378906 -0.113281 15.226562 0.015625 14.96875 0.015625 L 12.8125 0.015625 C 12.632812 0.015625 12.492188 -0.0195312 12.390625 -0.09375 C 12.347656 -0.125 12.3125 -0.164062 12.28125 -0.21875 C 12.25 -0.269531 12.210938 -0.320312 12.171875 -0.375 L 8.625 -6.671875 L 4.484375 -6.671875 L 4.484375 -0.671875 C 4.484375 -0.367188 4.410156 -0.175781 4.265625 -0.09375 C 4.128906 -0.0195312 4.015625 0.015625 3.921875 0.015625 L 2.140625 0.015625 C 2.046875 0.015625 1.925781 -0.0195312 1.78125 -0.09375 C 1.644531 -0.175781 1.578125 -0.367188 1.578125 -0.671875 L 1.578125 -8.921875 C 1.578125 -9.222656 1.644531 -9.40625 1.78125 -9.46875 C 1.925781 -9.539062 2.046875 -9.578125 2.140625 -9.578125 L 10.6875 -9.578125 C 11.1875 -9.578125 11.53125 -9.722656 11.71875 -10.015625 C 11.9375 -10.304688 12.046875 -10.78125 12.046875 -11.4375 C 12.046875 -12.082031 11.9375 -12.550781 11.71875 -12.84375 C 11.53125 -13.132812 11.1875 -13.28125 10.6875 -13.28125 L 2.140625 -13.28125 C 2.046875 -13.28125 1.925781 -13.316406 1.78125 -13.390625 C 1.644531 -13.460938 1.578125 -13.644531 1.578125 -13.9375 L 1.578125 -15.5 C 1.578125 -15.8125 1.644531 -16.003906 1.78125 -16.078125 C 1.925781 -16.148438 2.046875 -16.1875 2.140625 -16.1875 L 11.1875 -16.1875 C 12.539062 -16.1875 13.515625 -15.765625 14.109375 -14.921875 C 14.671875 -14.109375 14.957031 -12.945312 14.96875 -11.4375 C 14.957031 -9.914062 14.671875 -8.75 14.109375 -7.9375 C 13.609375 -7.25 12.875 -6.847656 11.90625 -6.734375 Z M 15.34375 -0.84375 "/></g></g></g><g fill="#ffffff" fill-opacity="1"><g transform="translate(147.826028, 41.987496)"><g><path d="M 14.953125 -14.75 C 15.328125 -14.28125 15.609375 -13.640625 15.796875 -12.828125 C 15.867188 -12.441406 15.925781 -12.015625 15.96875 -11.546875 C 16.019531 -11.078125 16.046875 -10.570312 16.046875 -10.03125 L 16.046875 -6.140625 C 16.046875 -5.597656 16.019531 -5.085938 15.96875 -4.609375 C 15.925781 -4.140625 15.867188 -3.71875 15.796875 -3.34375 C 15.609375 -2.539062 15.328125 -1.890625 14.953125 -1.390625 C 14.546875 -0.878906 14.035156 -0.519531 13.421875 -0.3125 C 12.785156 -0.09375 12.039062 0.015625 11.1875 0.015625 L 6.40625 0.015625 C 5.539062 0.015625 4.804688 -0.09375 4.203125 -0.3125 C 3.585938 -0.519531 3.078125 -0.890625 2.671875 -1.421875 C 2.273438 -1.929688 1.992188 -2.570312 1.828125 -3.34375 C 1.734375 -3.71875 1.664062 -4.140625 1.625 -4.609375 C 1.59375 -5.085938 1.578125 -5.597656 1.578125 -6.140625 L 1.578125 -10.03125 C 1.578125 -11.15625 1.660156 -12.085938 1.828125 -12.828125 C 1.992188 -13.597656 2.273438 -14.238281 2.671875 -14.75 C 3.078125 -15.25 3.585938 -15.613281 4.203125 -15.84375 C 4.828125 -16.070312 5.5625 -16.1875 6.40625 -16.1875 L 11.1875 -16.1875 C 12.039062 -16.1875 12.785156 -16.070312 13.421875 -15.84375 C 14.035156 -15.613281 14.546875 -15.25 14.953125 -14.75 Z M 13.125 -10.375 C 13.125 -10.65625 13.113281 -10.914062 13.09375 -11.15625 C 13.082031 -11.40625 13.054688 -11.628906 13.015625 -11.828125 C 12.960938 -12.191406 12.851562 -12.484375 12.6875 -12.703125 C 12.550781 -12.890625 12.351562 -13.035156 12.09375 -13.140625 C 11.96875 -13.179688 11.820312 -13.210938 11.65625 -13.234375 C 11.488281 -13.265625 11.300781 -13.28125 11.09375 -13.28125 L 6.5 -13.28125 C 6.289062 -13.28125 6.101562 -13.265625 5.9375 -13.234375 C 5.78125 -13.210938 5.632812 -13.179688 5.5 -13.140625 C 5.238281 -13.035156 5.039062 -12.890625 4.90625 -12.703125 C 4.832031 -12.597656 4.769531 -12.46875 4.71875 -12.3125 C 4.664062 -12.164062 4.617188 -12.003906 4.578125 -11.828125 C 4.546875 -11.628906 4.519531 -11.40625 4.5 -11.15625 C 4.488281 -10.914062 4.484375 -10.65625 4.484375 -10.375 L 4.484375 -5.796875 C 4.484375 -5.503906 4.488281 -5.238281 4.5 -5 C 4.519531 -4.757812 4.546875 -4.539062 4.578125 -4.34375 C 4.617188 -4.164062 4.664062 -4.003906 4.71875 -3.859375 C 4.769531 -3.710938 4.832031 -3.582031 4.90625 -3.46875 C 5.039062 -3.257812 5.238281 -3.117188 5.5 -3.046875 C 5.738281 -2.953125 6.070312 -2.90625 6.5 -2.90625 L 11.09375 -2.90625 C 11.53125 -2.90625 11.863281 -2.953125 12.09375 -3.046875 C 12.351562 -3.117188 12.550781 -3.257812 12.6875 -3.46875 C 12.84375 -3.664062 12.953125 -3.957031 13.015625 -4.34375 C 13.054688 -4.539062 13.082031 -4.757812 13.09375 -5 C 13.113281 -5.238281 13.125 -5.503906 13.125 -5.796875 Z M 13.125 -10.375 "/></g></g></g><g fill="#ffffff" fill-opacity="1"><g transform="translate(166.420424, 41.987496)"><g><path d="M 15.484375 -16.1875 C 15.554688 -16.1875 15.664062 -16.148438 15.8125 -16.078125 C 15.957031 -16.003906 16.03125 -15.8125 16.03125 -15.5 L 16.03125 -2.515625 C 16.03125 -1.554688 15.890625 -0.898438 15.609375 -0.546875 C 15.335938 -0.171875 14.914062 0.015625 14.34375 0.015625 L 12.90625 0.015625 C 12.644531 0.015625 12.421875 -0.00390625 12.234375 -0.046875 C 12.140625 -0.0664062 12.046875 -0.09375 11.953125 -0.125 C 11.867188 -0.15625 11.785156 -0.195312 11.703125 -0.25 C 11.546875 -0.34375 11.40625 -0.488281 11.28125 -0.6875 C 11.207031 -0.78125 11.128906 -0.882812 11.046875 -1 C 10.972656 -1.113281 10.898438 -1.253906 10.828125 -1.421875 L 4.59375 -12.453125 C 4.582031 -12.472656 4.566406 -12.488281 4.546875 -12.5 C 4.535156 -12.507812 4.53125 -12.515625 4.53125 -12.515625 L 4.4375 -12.515625 C 4.4375 -12.515625 4.4375 -12.507812 4.4375 -12.5 C 4.4375 -12.488281 4.4375 -12.476562 4.4375 -12.46875 L 4.4375 -0.671875 C 4.4375 -0.367188 4.367188 -0.175781 4.234375 -0.09375 C 4.097656 -0.0195312 3.984375 0.015625 3.890625 0.015625 L 2.140625 0.015625 C 2.046875 0.015625 1.925781 -0.0195312 1.78125 -0.09375 C 1.644531 -0.175781 1.578125 -0.367188 1.578125 -0.671875 L 1.578125 -13.65625 C 1.578125 -14.601562 1.710938 -15.265625 1.984375 -15.640625 C 2.273438 -16.003906 2.703125 -16.1875 3.265625 -16.1875 L 4.734375 -16.1875 C 4.867188 -16.1875 4.992188 -16.179688 5.109375 -16.171875 C 5.222656 -16.171875 5.328125 -16.160156 5.421875 -16.140625 C 5.628906 -16.097656 5.8125 -16.019531 5.96875 -15.90625 C 6.101562 -15.8125 6.242188 -15.660156 6.390625 -15.453125 C 6.453125 -15.359375 6.519531 -15.253906 6.59375 -15.140625 C 6.664062 -15.023438 6.738281 -14.894531 6.8125 -14.75 L 13.015625 -3.71875 C 13.035156 -3.675781 13.054688 -3.65625 13.078125 -3.65625 L 13.171875 -3.65625 C 13.171875 -3.664062 13.171875 -3.671875 13.171875 -3.671875 C 13.171875 -3.671875 13.171875 -3.675781 13.171875 -3.6875 L 13.171875 -15.5 C 13.171875 -15.8125 13.238281 -16.003906 13.375 -16.078125 C 13.519531 -16.148438 13.640625 -16.1875 13.734375 -16.1875 Z M 15.484375 -16.1875 "/></g></g></g></svg>