<svg xmlns="http://www.w3.org/2000/svg" xmlns:xlink="http://www.w3.org/1999/xlink" width="250" zoomAndPan="magnify" viewBox="0 0 187.5 74.999997" height="100" preserveAspectRatio="xMidYMid meet" version="1.0"><defs><g/><clipPath id="db66baa8de"><path d="M 35.605469 23.519531 L 59.542969 23.519531 L 59.542969 49.699219 L 35.605469 49.699219 Z M 35.605469 23.519531 " clip-rule="nonzero"/></clipPath></defs><path fill="#ffffff" d="M 45.917969 39.933594 C 45.917969 40.628906 45.355469 41.195312 44.660156 41.195312 C 43.960938 41.195312 43.398438 40.628906 43.398438 39.933594 L 43.398438 37.824219 C 43.398438 37.128906 43.960938 36.5625 44.660156 36.5625 C 45.355469 36.5625 45.917969 37.128906 45.917969 37.824219 Z M 51.710938 37.824219 C 51.710938 37.128906 51.148438 36.5625 50.449219 36.5625 C 49.753906 36.5625 49.191406 37.128906 49.191406 37.824219 L 49.191406 39.933594 C 49.191406 40.628906 49.753906 41.195312 50.449219 41.195312 C 51.148438 41.195312 51.710938 40.628906 51.710938 39.933594 Z M 51.710938 37.824219 " fill-opacity="1" fill-rule="nonzero"/><g clip-path="url(#db66baa8de)"><path fill="#12e88f" d="M 59.414062 39.714844 L 59.414062 42.6875 C 59.414062 43.792969 58.519531 44.6875 57.414062 44.6875 C 56.992188 44.6875 56.601562 44.554688 56.277344 44.332031 C 54.625 47.464844 51.335938 49.605469 47.554688 49.605469 C 43.753906 49.605469 40.449219 47.441406 38.804688 44.285156 C 38.472656 44.535156 38.054688 44.6875 37.605469 44.6875 C 36.5 44.6875 35.605469 43.792969 35.605469 42.6875 L 35.605469 39.714844 C 35.605469 38.609375 36.5 37.714844 37.605469 37.714844 C 37.707031 37.714844 37.804688 37.726562 37.898438 37.738281 C 38.5 34.828125 40.382812 32.320312 43.117188 30.941406 L 44.34375 33.375 C 41.925781 34.597656 40.421875 37.039062 40.421875 39.746094 C 40.421875 43.679688 43.621094 46.878906 47.554688 46.878906 C 51.488281 46.878906 54.6875 43.679688 54.6875 39.746094 C 54.6875 36.144531 52.003906 33.160156 48.53125 32.683594 C 48.53125 32.683594 48.53125 32.679688 48.53125 32.679688 C 48.53125 32.679688 48.527344 32.679688 48.519531 32.679688 C 48.417969 32.667969 48.320312 32.65625 48.21875 32.644531 C 47.582031 32.527344 46.191406 31.984375 46.191406 29.546875 L 46.191406 27.609375 L 43.964844 27.609375 L 47.554688 23.523438 L 51.144531 27.609375 L 48.917969 27.609375 L 48.917969 29.132812 C 48.945312 29.449219 49.085938 29.9375 49.636719 30.113281 C 49.714844 30.128906 49.792969 30.144531 49.871094 30.164062 C 49.878906 30.164062 49.882812 30.167969 49.886719 30.167969 C 53.554688 31.0625 56.425781 34.015625 57.203125 37.726562 C 57.273438 37.71875 57.34375 37.714844 57.414062 37.714844 C 58.519531 37.714844 59.414062 38.609375 59.414062 39.714844 Z M 59.414062 39.714844 " fill-opacity="1" fill-rule="nonzero"/></g><g fill="#ffffff" fill-opacity="1"><g transform="translate(-0.000000000000002657, 47.814473)"><g><path d="M 11.234375 -16.234375 C 12.566406 -16.234375 13.53125 -15.8125 14.125 -14.96875 C 14.707031 -14.1875 15 -13 15 -11.40625 L 15 -11.53125 C 15 -9.96875 14.707031 -8.773438 14.125 -7.953125 C 13.53125 -7.128906 12.566406 -6.71875 11.234375 -6.71875 L 4.5 -6.703125 L 4.5 -0.671875 C 4.5 -0.367188 4.425781 -0.175781 4.28125 -0.09375 C 4.132812 -0.0195312 4.019531 0.015625 3.9375 0.015625 L 2.125 0.015625 C 2.050781 0.015625 1.941406 -0.0195312 1.796875 -0.09375 C 1.648438 -0.175781 1.578125 -0.367188 1.578125 -0.671875 L 1.578125 -8.9375 C 1.578125 -9.238281 1.648438 -9.425781 1.796875 -9.5 C 1.941406 -9.570312 2.050781 -9.609375 2.125 -9.609375 L 10.71875 -9.609375 C 11.21875 -9.609375 11.566406 -9.753906 11.765625 -10.046875 C 11.972656 -10.335938 12.078125 -10.8125 12.078125 -11.46875 C 12.078125 -12.125 11.972656 -12.597656 11.765625 -12.890625 C 11.566406 -13.171875 11.21875 -13.3125 10.71875 -13.3125 L 2.125 -13.3125 C 2.050781 -13.3125 1.941406 -13.347656 1.796875 -13.421875 C 1.648438 -13.492188 1.578125 -13.679688 1.578125 -13.984375 L 1.578125 -15.546875 C 1.578125 -15.859375 1.648438 -16.050781 1.796875 -16.125 C 1.941406 -16.195312 2.050781 -16.234375 2.125 -16.234375 Z M 11.234375 -16.234375 "/></g></g></g><g fill="#ffffff" fill-opacity="1"><g transform="translate(17.555265, 47.814473)"><g><path d="M 15.015625 -11.53125 L 15.015625 -11.40625 C 15.015625 -11.414062 15.015625 -11.425781 15.015625 -11.4375 C 15.015625 -11.445312 15.015625 -11.457031 15.015625 -11.46875 C 15.015625 -11.476562 15.015625 -11.484375 15.015625 -11.484375 C 15.015625 -11.492188 15.015625 -11.507812 15.015625 -11.53125 Z M 15.390625 -0.84375 C 15.460938 -0.738281 15.488281 -0.582031 15.46875 -0.375 C 15.425781 -0.113281 15.273438 0.015625 15.015625 0.015625 L 12.84375 0.015625 C 12.675781 0.015625 12.539062 -0.0195312 12.4375 -0.09375 C 12.394531 -0.125 12.359375 -0.164062 12.328125 -0.21875 C 12.296875 -0.269531 12.257812 -0.320312 12.21875 -0.375 L 8.65625 -6.703125 L 4.5 -6.703125 L 4.5 -0.671875 C 4.5 -0.367188 4.425781 -0.175781 4.28125 -0.09375 C 4.144531 -0.0195312 4.03125 0.015625 3.9375 0.015625 L 2.140625 0.015625 C 2.054688 0.015625 1.941406 -0.0195312 1.796875 -0.09375 C 1.648438 -0.175781 1.578125 -0.367188 1.578125 -0.671875 L 1.578125 -8.9375 C 1.578125 -9.238281 1.648438 -9.425781 1.796875 -9.5 C 1.941406 -9.570312 2.054688 -9.609375 2.140625 -9.609375 L 10.71875 -9.609375 C 11.21875 -9.609375 11.566406 -9.753906 11.765625 -10.046875 C 11.972656 -10.335938 12.078125 -10.8125 12.078125 -11.46875 C 12.078125 -12.125 11.972656 -12.597656 11.765625 -12.890625 C 11.566406 -13.171875 11.21875 -13.3125 10.71875 -13.3125 L 2.140625 -13.3125 C 2.054688 -13.3125 1.941406 -13.347656 1.796875 -13.421875 C 1.648438 -13.492188 1.578125 -13.679688 1.578125 -13.984375 L 1.578125 -15.546875 C 1.578125 -15.859375 1.648438 -16.050781 1.796875 -16.125 C 1.941406 -16.195312 2.054688 -16.234375 2.140625 -16.234375 L 11.234375 -16.234375 C 12.585938 -16.234375 13.554688 -15.8125 14.140625 -14.96875 C 14.710938 -14.15625 15.003906 -12.988281 15.015625 -11.46875 C 15.003906 -9.945312 14.710938 -8.773438 14.140625 -7.953125 C 13.640625 -7.273438 12.90625 -6.878906 11.9375 -6.765625 Z M 15.390625 -0.84375 "/></g></g></g><g fill="#ffffff" fill-opacity="1"><g transform="translate(61.036363, 47.814473)"><g><path d="M 12.296875 -16.234375 C 12.671875 -16.234375 12.90625 -16.148438 13 -15.984375 C 13.101562 -15.828125 13.15625 -15.679688 13.15625 -15.546875 L 13.15625 -6.171875 C 13.15625 -5.617188 13.132812 -5.101562 13.09375 -4.625 C 13.050781 -4.15625 12.988281 -3.726562 12.90625 -3.34375 C 12.8125 -2.957031 12.691406 -2.601562 12.546875 -2.28125 C 12.398438 -1.957031 12.238281 -1.664062 12.0625 -1.40625 C 11.65625 -0.90625 11.140625 -0.539062 10.515625 -0.3125 C 9.890625 -0.09375 9.148438 0.015625 8.296875 0.015625 L 2.125 0.015625 C 2.050781 0.015625 1.941406 -0.0195312 1.796875 -0.09375 C 1.648438 -0.175781 1.578125 -0.367188 1.578125 -0.671875 L 1.578125 -2.21875 C 1.578125 -2.519531 1.648438 -2.710938 1.796875 -2.796875 C 1.941406 -2.878906 2.050781 -2.921875 2.125 -2.921875 L 8.21875 -2.921875 C 8.644531 -2.921875 8.976562 -2.960938 9.21875 -3.046875 C 9.476562 -3.128906 9.675781 -3.273438 9.8125 -3.484375 C 9.957031 -3.671875 10.0625 -3.960938 10.125 -4.359375 C 10.164062 -4.554688 10.191406 -4.78125 10.203125 -5.03125 C 10.210938 -5.28125 10.21875 -5.546875 10.21875 -5.828125 L 10.21875 -13.28125 C 10.21875 -13.28125 10.054688 -13.28125 9.734375 -13.28125 C 9.421875 -13.289062 9.03125 -13.296875 8.5625 -13.296875 C 8.09375 -13.296875 7.617188 -13.296875 7.140625 -13.296875 C 6.671875 -13.304688 6.273438 -13.3125 5.953125 -13.3125 C 5.640625 -13.3125 5.484375 -13.3125 5.484375 -13.3125 C 5.390625 -13.3125 5.269531 -13.347656 5.125 -13.421875 C 4.976562 -13.492188 4.90625 -13.679688 4.90625 -13.984375 L 4.90625 -15.546875 C 4.90625 -15.859375 4.976562 -16.050781 5.125 -16.125 C 5.269531 -16.195312 5.390625 -16.234375 5.484375 -16.234375 Z M 12.296875 -16.234375 "/></g></g></g><g fill="#ffffff" fill-opacity="1"><g transform="translate(76.759259, 47.814473)"><g><path d="M 13.421875 -3.53125 C 13.515625 -3.53125 13.628906 -3.492188 13.765625 -3.421875 C 13.910156 -3.347656 13.984375 -3.160156 13.984375 -2.859375 L 13.984375 -0.6875 C 13.984375 -0.382812 13.910156 -0.195312 13.765625 -0.125 C 13.628906 -0.0507812 13.515625 -0.015625 13.421875 -0.015625 L 6.421875 -0.015625 C 5.984375 -0.015625 5.582031 -0.0390625 5.21875 -0.09375 C 4.851562 -0.144531 4.519531 -0.234375 4.21875 -0.359375 C 3.570312 -0.578125 3.054688 -0.9375 2.671875 -1.4375 C 2.285156 -1.945312 2.003906 -2.59375 1.828125 -3.375 C 1.765625 -3.695312 1.707031 -4.054688 1.65625 -4.453125 C 1.613281 -4.847656 1.585938 -5.273438 1.578125 -5.734375 L 1.578125 -5.828125 L 1.609375 -8.3125 C 1.648438 -8.457031 1.722656 -8.625 1.828125 -8.8125 C 2.117188 -9.320312 2.566406 -9.597656 3.171875 -9.640625 L 13.34375 -9.65625 C 13.414062 -9.65625 13.523438 -9.617188 13.671875 -9.546875 C 13.816406 -9.472656 13.890625 -9.285156 13.890625 -8.984375 L 13.890625 -7.421875 C 13.890625 -7.117188 13.816406 -6.925781 13.671875 -6.84375 C 13.523438 -6.769531 13.414062 -6.734375 13.34375 -6.734375 L 4.53125 -6.734375 C 4.53125 -6.734375 4.523438 -6.660156 4.515625 -6.515625 C 4.515625 -6.378906 4.507812 -6.21875 4.5 -6.03125 C 4.5 -5.84375 4.5 -5.675781 4.5 -5.53125 C 4.5 -5.382812 4.5 -5.3125 4.5 -5.3125 C 4.507812 -5.257812 4.515625 -5.203125 4.515625 -5.140625 C 4.515625 -5.085938 4.519531 -5.035156 4.53125 -4.984375 C 4.582031 -4.617188 4.691406 -4.320312 4.859375 -4.09375 C 5.023438 -3.894531 5.222656 -3.753906 5.453125 -3.671875 C 5.597656 -3.628906 5.753906 -3.59375 5.921875 -3.5625 C 6.085938 -3.539062 6.273438 -3.53125 6.484375 -3.53125 Z M 3.3125 -9.484375 Z M 13.4375 -16.28125 C 13.519531 -16.28125 13.628906 -16.238281 13.765625 -16.15625 C 13.910156 -16.070312 13.984375 -15.878906 13.984375 -15.578125 L 13.984375 -14.03125 C 13.984375 -13.726562 13.910156 -13.535156 13.765625 -13.453125 C 13.628906 -13.378906 13.519531 -13.34375 13.4375 -13.34375 L 2.109375 -13.359375 C 2.023438 -13.359375 1.914062 -13.394531 1.78125 -13.46875 C 1.644531 -13.539062 1.578125 -13.726562 1.578125 -14.03125 L 1.578125 -15.5625 C 1.578125 -15.875 1.644531 -16.070312 1.78125 -16.15625 C 1.914062 -16.238281 2.023438 -16.28125 2.109375 -16.28125 Z M 13.4375 -16.28125 "/></g></g></g><g fill="#ffffff" fill-opacity="1"><g transform="translate(93.309679, 47.814473)"><g><path d="M 13.609375 -16.234375 C 13.691406 -16.234375 13.804688 -16.191406 13.953125 -16.109375 C 14.097656 -16.035156 14.171875 -15.847656 14.171875 -15.546875 L 14.171875 -14.03125 C 14.171875 -13.71875 14.097656 -13.519531 13.953125 -13.4375 C 13.804688 -13.351562 13.691406 -13.3125 13.609375 -13.3125 L 6.546875 -13.3125 C 6.097656 -13.3125 5.753906 -13.269531 5.515625 -13.1875 C 5.273438 -13.101562 5.078125 -12.957031 4.921875 -12.75 C 4.773438 -12.550781 4.664062 -12.257812 4.59375 -11.875 C 4.5625 -11.695312 4.535156 -11.484375 4.515625 -11.234375 C 4.503906 -10.992188 4.5 -10.722656 4.5 -10.421875 L 4.5 -5.828125 C 4.5 -5.546875 4.503906 -5.28125 4.515625 -5.03125 C 4.535156 -4.78125 4.5625 -4.554688 4.59375 -4.359375 C 4.632812 -4.171875 4.679688 -4.003906 4.734375 -3.859375 C 4.785156 -3.710938 4.847656 -3.585938 4.921875 -3.484375 C 5.078125 -3.273438 5.273438 -3.128906 5.515625 -3.046875 C 5.753906 -2.960938 6.097656 -2.921875 6.546875 -2.921875 L 13.609375 -2.921875 C 13.691406 -2.921875 13.804688 -2.878906 13.953125 -2.796875 C 14.097656 -2.710938 14.171875 -2.519531 14.171875 -2.21875 L 14.171875 -0.671875 C 14.171875 -0.367188 14.097656 -0.175781 13.953125 -0.09375 C 13.804688 -0.0195312 13.691406 0.015625 13.609375 0.015625 L 6.4375 0.015625 C 5.582031 0.015625 4.84375 -0.09375 4.21875 -0.3125 C 3.613281 -0.519531 3.109375 -0.882812 2.703125 -1.40625 C 2.296875 -1.925781 2.003906 -2.566406 1.828125 -3.328125 C 1.734375 -3.722656 1.664062 -4.15625 1.625 -4.625 C 1.59375 -5.101562 1.578125 -5.617188 1.578125 -6.171875 L 1.578125 -10.0625 C 1.578125 -10.601562 1.59375 -11.109375 1.625 -11.578125 C 1.664062 -12.054688 1.734375 -12.484375 1.828125 -12.859375 C 2.003906 -13.648438 2.296875 -14.296875 2.703125 -14.796875 C 3.078125 -15.296875 3.582031 -15.664062 4.21875 -15.90625 C 4.84375 -16.125 5.582031 -16.234375 6.4375 -16.234375 Z M 13.609375 -16.234375 "/></g></g></g><g fill="#ffffff" fill-opacity="1"><g transform="translate(110.037428, 47.814473)"><g><path d="M 15.1875 -16.234375 C 15.28125 -16.234375 15.398438 -16.195312 15.546875 -16.125 C 15.691406 -16.050781 15.765625 -15.863281 15.765625 -15.5625 L 15.765625 -14.03125 C 15.765625 -13.695312 15.691406 -13.492188 15.546875 -13.421875 C 15.398438 -13.347656 15.28125 -13.3125 15.1875 -13.3125 L 10.125 -13.3125 L 10.125 -0.671875 C 10.125 -0.367188 10.054688 -0.179688 9.921875 -0.109375 C 9.785156 -0.0351562 9.671875 0 9.578125 0 L 7.765625 0 C 7.679688 0 7.566406 -0.0351562 7.421875 -0.109375 C 7.285156 -0.179688 7.21875 -0.367188 7.21875 -0.671875 L 7.21875 -13.3125 L 2.140625 -13.3125 C 2.054688 -13.3125 1.941406 -13.347656 1.796875 -13.421875 C 1.648438 -13.492188 1.578125 -13.695312 1.578125 -14.03125 L 1.578125 -15.5625 C 1.578125 -15.863281 1.648438 -16.050781 1.796875 -16.125 C 1.941406 -16.195312 2.054688 -16.234375 2.140625 -16.234375 Z M 15.1875 -16.234375 "/></g></g></g><g fill="#ffffff" fill-opacity="1"><g transform="translate(128.361112, 47.814473)"><g><path d="M 15.015625 -11.53125 L 15.015625 -11.40625 C 15.015625 -11.414062 15.015625 -11.425781 15.015625 -11.4375 C 15.015625 -11.445312 15.015625 -11.457031 15.015625 -11.46875 C 15.015625 -11.476562 15.015625 -11.484375 15.015625 -11.484375 C 15.015625 -11.492188 15.015625 -11.507812 15.015625 -11.53125 Z M 15.390625 -0.84375 C 15.460938 -0.738281 15.488281 -0.582031 15.46875 -0.375 C 15.425781 -0.113281 15.273438 0.015625 15.015625 0.015625 L 12.84375 0.015625 C 12.675781 0.015625 12.539062 -0.0195312 12.4375 -0.09375 C 12.394531 -0.125 12.359375 -0.164062 12.328125 -0.21875 C 12.296875 -0.269531 12.257812 -0.320312 12.21875 -0.375 L 8.65625 -6.703125 L 4.5 -6.703125 L 4.5 -0.671875 C 4.5 -0.367188 4.425781 -0.175781 4.28125 -0.09375 C 4.144531 -0.0195312 4.03125 0.015625 3.9375 0.015625 L 2.140625 0.015625 C 2.054688 0.015625 1.941406 -0.0195312 1.796875 -0.09375 C 1.648438 -0.175781 1.578125 -0.367188 1.578125 -0.671875 L 1.578125 -8.9375 C 1.578125 -9.238281 1.648438 -9.425781 1.796875 -9.5 C 1.941406 -9.570312 2.054688 -9.609375 2.140625 -9.609375 L 10.71875 -9.609375 C 11.21875 -9.609375 11.566406 -9.753906 11.765625 -10.046875 C 11.972656 -10.335938 12.078125 -10.8125 12.078125 -11.46875 C 12.078125 -12.125 11.972656 -12.597656 11.765625 -12.890625 C 11.566406 -13.171875 11.21875 -13.3125 10.71875 -13.3125 L 2.140625 -13.3125 C 2.054688 -13.3125 1.941406 -13.347656 1.796875 -13.421875 C 1.648438 -13.492188 1.578125 -13.679688 1.578125 -13.984375 L 1.578125 -15.546875 C 1.578125 -15.859375 1.648438 -16.050781 1.796875 -16.125 C 1.941406 -16.195312 2.054688 -16.234375 2.140625 -16.234375 L 11.234375 -16.234375 C 12.585938 -16.234375 13.554688 -15.8125 14.140625 -14.96875 C 14.710938 -14.15625 15.003906 -12.988281 15.015625 -11.46875 C 15.003906 -9.945312 14.710938 -8.773438 14.140625 -7.953125 C 13.640625 -7.273438 12.90625 -6.878906 11.9375 -6.765625 Z M 15.390625 -0.84375 "/></g></g></g><g fill="#ffffff" fill-opacity="1"><g transform="translate(146.40895, 47.814473)"><g><path d="M 15 -14.796875 C 15.375 -14.328125 15.65625 -13.679688 15.84375 -12.859375 C 15.914062 -12.484375 15.972656 -12.054688 16.015625 -11.578125 C 16.066406 -11.109375 16.09375 -10.601562 16.09375 -10.0625 L 16.09375 -6.171875 C 16.09375 -5.617188 16.066406 -5.101562 16.015625 -4.625 C 15.972656 -4.15625 15.914062 -3.726562 15.84375 -3.34375 C 15.65625 -2.539062 15.375 -1.894531 15 -1.40625 C 14.59375 -0.882812 14.078125 -0.519531 13.453125 -0.3125 C 12.828125 -0.09375 12.085938 0.015625 11.234375 0.015625 L 6.421875 0.015625 C 5.554688 0.015625 4.820312 -0.09375 4.21875 -0.3125 C 3.601562 -0.519531 3.085938 -0.890625 2.671875 -1.421875 C 2.285156 -1.929688 2.003906 -2.570312 1.828125 -3.34375 C 1.734375 -3.726562 1.664062 -4.15625 1.625 -4.625 C 1.59375 -5.101562 1.578125 -5.617188 1.578125 -6.171875 L 1.578125 -10.0625 C 1.578125 -11.195312 1.660156 -12.128906 1.828125 -12.859375 C 2.003906 -13.640625 2.285156 -14.285156 2.671875 -14.796875 C 3.085938 -15.296875 3.601562 -15.664062 4.21875 -15.90625 C 4.84375 -16.125 5.578125 -16.234375 6.421875 -16.234375 L 11.234375 -16.234375 C 12.085938 -16.234375 12.828125 -16.125 13.453125 -15.90625 C 14.078125 -15.664062 14.59375 -15.296875 15 -14.796875 Z M 13.15625 -10.40625 C 13.15625 -10.695312 13.148438 -10.960938 13.140625 -11.203125 C 13.128906 -11.441406 13.101562 -11.660156 13.0625 -11.859375 C 13.007812 -12.222656 12.898438 -12.519531 12.734375 -12.75 C 12.597656 -12.9375 12.398438 -13.082031 12.140625 -13.1875 C 12.003906 -13.21875 11.851562 -13.242188 11.6875 -13.265625 C 11.53125 -13.296875 11.34375 -13.3125 11.125 -13.3125 L 6.515625 -13.3125 C 6.304688 -13.3125 6.117188 -13.296875 5.953125 -13.265625 C 5.796875 -13.242188 5.648438 -13.21875 5.515625 -13.1875 C 5.253906 -13.082031 5.054688 -12.9375 4.921875 -12.75 C 4.847656 -12.644531 4.785156 -12.515625 4.734375 -12.359375 C 4.679688 -12.210938 4.632812 -12.046875 4.59375 -11.859375 C 4.5625 -11.660156 4.535156 -11.441406 4.515625 -11.203125 C 4.503906 -10.960938 4.5 -10.695312 4.5 -10.40625 L 4.5 -5.8125 C 4.5 -5.519531 4.503906 -5.253906 4.515625 -5.015625 C 4.535156 -4.773438 4.5625 -4.554688 4.59375 -4.359375 C 4.632812 -4.179688 4.679688 -4.015625 4.734375 -3.859375 C 4.785156 -3.710938 4.847656 -3.585938 4.921875 -3.484375 C 5.054688 -3.273438 5.253906 -3.128906 5.515625 -3.046875 C 5.753906 -2.960938 6.085938 -2.921875 6.515625 -2.921875 L 11.125 -2.921875 C 11.5625 -2.921875 11.898438 -2.960938 12.140625 -3.046875 C 12.398438 -3.128906 12.597656 -3.273438 12.734375 -3.484375 C 12.890625 -3.679688 13 -3.972656 13.0625 -4.359375 C 13.101562 -4.554688 13.128906 -4.773438 13.140625 -5.015625 C 13.148438 -5.253906 13.15625 -5.519531 13.15625 -5.8125 Z M 13.15625 -10.40625 "/></g></g></g><g fill="#ffffff" fill-opacity="1"><g transform="translate(165.067577, 47.814473)"><g><path d="M 15.53125 -16.234375 C 15.601562 -16.234375 15.710938 -16.195312 15.859375 -16.125 C 16.003906 -16.050781 16.078125 -15.859375 16.078125 -15.546875 L 16.078125 -2.515625 C 16.078125 -1.554688 15.9375 -0.898438 15.65625 -0.546875 C 15.382812 -0.171875 14.960938 0.015625 14.390625 0.015625 L 12.9375 0.015625 C 12.675781 0.015625 12.457031 -0.00390625 12.28125 -0.046875 C 12.1875 -0.0664062 12.09375 -0.09375 12 -0.125 C 11.90625 -0.15625 11.820312 -0.195312 11.75 -0.25 C 11.582031 -0.34375 11.4375 -0.488281 11.3125 -0.6875 C 11.25 -0.78125 11.175781 -0.882812 11.09375 -1 C 11.007812 -1.125 10.929688 -1.265625 10.859375 -1.421875 L 4.609375 -12.484375 C 4.597656 -12.515625 4.582031 -12.53125 4.5625 -12.53125 C 4.550781 -12.539062 4.546875 -12.546875 4.546875 -12.546875 L 4.453125 -12.546875 C 4.453125 -12.546875 4.453125 -12.539062 4.453125 -12.53125 C 4.453125 -12.53125 4.453125 -12.523438 4.453125 -12.515625 L 4.453125 -0.671875 C 4.453125 -0.367188 4.382812 -0.175781 4.25 -0.09375 C 4.113281 -0.0195312 4 0.015625 3.90625 0.015625 L 2.140625 0.015625 C 2.054688 0.015625 1.941406 -0.0195312 1.796875 -0.09375 C 1.648438 -0.175781 1.578125 -0.367188 1.578125 -0.671875 L 1.578125 -13.6875 C 1.578125 -14.644531 1.710938 -15.3125 1.984375 -15.6875 C 2.273438 -16.050781 2.703125 -16.234375 3.265625 -16.234375 L 4.75 -16.234375 C 4.882812 -16.234375 5.007812 -16.226562 5.125 -16.21875 C 5.238281 -16.21875 5.34375 -16.210938 5.4375 -16.203125 C 5.644531 -16.160156 5.828125 -16.078125 5.984375 -15.953125 C 6.117188 -15.867188 6.257812 -15.71875 6.40625 -15.5 C 6.46875 -15.414062 6.535156 -15.3125 6.609375 -15.1875 C 6.679688 -15.070312 6.757812 -14.941406 6.84375 -14.796875 L 13.0625 -3.71875 C 13.070312 -3.6875 13.09375 -3.671875 13.125 -3.671875 L 13.21875 -3.671875 C 13.21875 -3.679688 13.21875 -3.6875 13.21875 -3.6875 C 13.21875 -3.6875 13.21875 -3.691406 13.21875 -3.703125 L 13.21875 -15.546875 C 13.21875 -15.859375 13.285156 -16.050781 13.421875 -16.125 C 13.566406 -16.195312 13.679688 -16.234375 13.765625 -16.234375 Z M 15.53125 -16.234375 "/></g></g></g></svg>